<svg height="512" viewBox="0 0 58 58" width="512" xmlns="http://www.w3.org/2000/svg"><g id="Page-1" fill="none" fill-rule="evenodd"><g id="022---B&amp;B-Review" fill="rgb(0,0,0)" fill-rule="nonzero"><circle id="Oval" cx="6" cy="6" r="1"/><path id="Shape" d="m0 55c0 1.6568542 1.34314575 3 3 3h52c1.6568542 0 3-1.3431458 3-3v-42h-58zm35.49-8.86-2 2 .51 2.86c.1141631.6520057-.1537166 1.311999-.69 1.7-.5235796.3818982-1.2201304.4285944-1.79.12l-2.52-1.35-2.47 1.33c-.2470657.1290788-.5212579.1976268-.8.2-.5033176-.001539-.9803954-.224739-1.3041267-.6101335-.3237314-.3853945-.461234-.8938378-.3758733-1.3898665l.47-2.83-2-2c-.4587369-.4597534-.6213255-1.1377074-.4210122-1.7555159.2003134-.6178085.7297777-1.0713767 1.3710122-1.1744841l2.76-.41 1.43-2.95c.2506297-.5174855.7750161-.8461652 1.35-.8461652s1.0993703.3286797 1.35.8461652l1.43 2.95 2.76.41c.6498974.0875788 1.1944098.5350867 1.4062259 1.1557079s.0545191 1.3076545-.4062259 1.7742921zm11.86-6.29 1.43 2.95 2.76.41c.6498974.0875788 1.1944098.5350867 1.4062259 1.1557079s.0545191 1.3076545-.4062259 1.7742921l-2 2 .46 2.86c.1141631.6520057-.1537166 1.311999-.69 1.7-.5235796.3818982-1.2201304.4285944-1.79.12l-2.52-1.35-2.47 1.33c-.2470657.1290788-.5212579.1976268-.8.2-.5033176-.001539-.9803954-.224739-1.3041267-.6101335-.3237314-.3853945-.461234-.8938378-.3758733-1.3898665l.47-2.83-2-2c-.460745-.4666376-.618042-1.1536709-.4062259-1.7742921s.7563285-1.0681291 1.4062259-1.1557079l2.76-.41 1.43-2.95c.2506297-.5174855.7750161-.8461652 1.35-.8461652s1.0993703.3286797 1.35.8461652zm-4.35-6.85h2c.5522847 0 1 .4477153 1 1s-.4477153 1-1 1h-2c-.5522847 0-1-.4477153-1-1s.4477153-1 1-1zm-26-5v-12c0-.5522847.4477153-1 1-1s1 .4477153 1 1v2h4c1.6568542 0 3 1.3431458 3 3v1h13v-2c0-.5522847.4477153-1 1-1s1 .4477153 1 1v10c0 .5522847-.4477153 1-1 1s-1-.4477153-1-1v-1h-20v1c0 .5522847-.4477153 1-1 1s-1-.4477153-1-1zm-4 5h26c.5522847 0 1 .4477153 1 1s-.4477153 1-1 1h-26c-.5522847 0-1-.4477153-1-1s.4477153-1 1-1zm-7.91 11.37c.19658495-.6172909.72874535-1.0678793 1.37-1.16l2.76-.41 1.43-2.95c.2506297-.5174855.7750161-.8461652 1.35-.8461652s1.0993703.3286797 1.35.8461652l1.43 2.95 2.76.41c.6412345.1031074 1.1706988.5566756 1.3710122 1.1744841.2003133.6178085.0377247 1.2957625-.4210122 1.7555159l-2 2 .51 2.86c.1141631.6520057-.1537166 1.311999-.69 1.7-.5235796.3818982-1.2201304.4285944-1.79.12l-2.52-1.35-2.47 1.33c-.24706574.1290788-.52125786.1976268-.8.2-.50331756-.001539-.98039536-.224739-1.30412674-.6101335s-.46123396-.8938378-.37587326-1.3898665l.47-2.83-2-2c-.48367651-.4638972-.65177795-1.1675776-.43-1.8z"/><path id="Shape" d="m9.54 48.21-.43 2.54 2.18-1.17c.4428979-.2400509.9771021-.2400509 1.42 0l2.18 1.17-.43-2.54c-.0769292-.4726246.079558-.9532637.42-1.29l1.82-1.82-2.48-.36c-.4880712-.079215-.9084223-.3879685-1.13-.83l-1.09-2.27-1.09 2.27c-.2215777.4420315-.6419288.750785-1.13.83l-2.48.36 1.82 1.82c.34044204.3367363.49692921.8173754.42 1.29z"/><path id="Shape" d="m24 22v-1c0-.5522847-.4477153-1-1-1h-4v2z"/><path id="Shape" d="m30.09 43.91-1.09-2.27-1.09 2.27c-.2215777.4420315-.6419288.750785-1.13.83l-2.48.36 1.82 1.82c.340442.3367363.4969292.8173754.42 1.29l-.43 2.54 2.18-1.17c.4428979-.2400509.9771021-.2400509 1.42 0l2.18 1.17-.43-2.54c-.0769292-.4726246.079558-.9532637.42-1.29l1.82-1.82-2.48-.36c-.4880712-.079215-.9084223-.3879685-1.13-.83z"/><path id="Shape" d="m55 0h-52c-1.65685425 0-3 1.34314575-3 3v8h58v-8c0-1.65685425-1.3431458-3-3-3zm-49 9c-1.65685425 0-3-1.34314575-3-3s1.34314575-3 3-3 3 1.34314575 3 3c0 .79564947-.31607052 1.55871121-.87867966 2.12132034-.56260913.56260914-1.32567087.87867966-2.12132034.87867966zm8 0c-1.6568542 0-3-1.34314575-3-3s1.3431458-3 3-3 3 1.34314575 3 3c0 .79564947-.3160705 1.55871121-.8786797 2.12132034-.5626091.56260914-1.3256708.87867966-2.1213203.87867966zm8 0c-1.6568542 0-3-1.34314575-3-3s1.3431458-3 3-3 3 1.34314575 3 3c0 .79564947-.3160705 1.55871121-.8786797 2.12132034-.5626091.56260914-1.3256708.87867966-2.1213203.87867966z"/><path id="Shape" d="m44.91 43.91c-.2215777.4420315-.6419288.750785-1.13.83l-2.48.36 1.82 1.82c.340442.3367363.4969292.8173754.42 1.29l-.43 2.54 2.18-1.17c.4428979-.2400509.9771021-.2400509 1.42 0l2.18 1.17-.43-2.54c-.0769292-.4726246.079558-.9532637.42-1.29l1.82-1.82-2.48-.36c-.4880712-.079215-.9084223-.3879685-1.13-.83l-1.09-2.27z"/><circle id="Oval" cx="14" cy="6" r="1"/><circle id="Oval" cx="22" cy="6" r="1"/><path id="Rectangle-path" d="m19 24h20v3h-20z"/></g></g></svg>