<?xml version="1.0" encoding="iso-8859-1"?>
<!-- Generator: Adobe Illustrator 19.0.0, SVG Export Plug-In . SVG Version: 6.00 Build 0)  -->
<svg version="1.1" id="Capa_1" xmlns="http://www.w3.org/2000/svg" xmlns:xlink="http://www.w3.org/1999/xlink" x="0px" y="0px"
	 viewBox="0 0 480 480" style="enable-background:new 0 0 480 480;" xml:space="preserve">
<g>
	<g>
		<path d="M400,400H80c-22.056,0-40,17.944-40,40c0,22.056,17.944,40,40,40h320c22.056,0,40-17.944,40-40
			C440,417.944,422.056,400,400,400z M400,464H80c-13.232,0-24-10.768-24-24s10.768-24,24-24h320c13.232,0,24,10.768,24,24
			S413.232,464,400,464z"/>
	</g>
</g>
<g>
	<g>
		<path d="M240,336c-13.92,0-24.024,6.016-28.8,9.6l9.592,12.8c3.184-2.384,9.92-6.4,19.2-6.4c3.984,0,11.776,0.832,19.2,6.4
			l9.608-12.8C257.664,337.248,245.976,336,240,336z"/>
	</g>
</g>
<g>
	<g>
		<path d="M240,296c-25.536,0-44.048,11.024-52.808,17.6l9.608,12.8c7.168-5.384,22.304-14.4,43.2-14.4
			c8.96,0,26.496,1.872,43.2,14.4l9.6-12.8C272.384,298.28,250.96,296,240,296z"/>
	</g>
</g>
<g>
	<g>
		<path d="M240,256c-43.32,0-70.608,26.512-77.936,34.64l11.872,10.72C180.16,294.472,203.28,272,240,272
			c9.28,0,41.472,2.12,66.064,29.36l11.872-10.72C288.92,258.496,250.944,256,240,256z"/>
	</g>
</g>
<g>
	<g>
		<rect x="288" y="432" width="104" height="16"/>
	</g>
</g>
<g>
	<g>
		<rect x="88" y="432" width="16" height="16"/>
	</g>
</g>
<g>
	<g>
		<rect x="120" y="432" width="16" height="16"/>
	</g>
</g>
<g>
	<g>
		<rect x="152" y="432" width="16" height="16"/>
	</g>
</g>
<g>
	<g>
		<path d="M272,144h-9.472c0.896-2.512,1.472-5.184,1.472-8V24c0-13.232-10.768-24-24-24H64C50.768,0,40,10.768,40,24v112
			c0,2.816,0.576,5.488,1.472,8H32c-4.424,0-8,3.584-8,8c0,22.056,17.944,40,40,40h176c22.056,0,40-17.944,40-40
			C280,147.584,276.424,144,272,144z M56,24c0-4.408,3.584-8,8-8h176c4.416,0,8,3.592,8,8v112c0,4.408-3.584,8-8,8H64
			c-4.416,0-8-3.592-8-8V24z M240,176H64c-10.432,0-19.328-6.688-22.632-16H64h176h22.632C259.328,169.312,250.432,176,240,176z"/>
	</g>
</g>
<g>
	<g>
		<path d="M224,32H80c-4.424,0-8,3.584-8,8v80c0,4.416,3.576,8,8,8h144c4.424,0,8-3.584,8-8V40C232,35.584,228.424,32,224,32z
			 M216,112H88V48h128V112z"/>
	</g>
</g>
<g>
	<g>
		<path d="M432,0h-80c-13.232,0-24,10.768-24,24v160c0,13.232,10.768,24,24,24h80c13.232,0,24-10.768,24-24V24
			C456,10.768,445.232,0,432,0z M440,184c0,4.408-3.584,8-8,8h-80c-4.416,0-8-3.592-8-8v-8h96V184z M440,160h-96V48h96V160z M440,32
			h-96v-8c0-4.408,3.584-8,8-8h80c4.416,0,8,3.592,8,8V32z"/>
	</g>
</g>
<g>
	<g>
		<rect x="232" y="368" width="16" height="16"/>
	</g>
</g>
<g>
	<g>
		<path d="M45.752,314.536l-14.936,5.744c2,5.184,4.192,10.32,6.52,15.256l14.472-6.84C49.64,324.12,47.608,319.352,45.752,314.536z
			"/>
	</g>
</g>
<g>
	<g>
		<path d="M36.896,285.088l-15.624,3.456c1.192,5.408,2.6,10.816,4.184,16.056l15.312-4.624
			C39.304,295.12,38,290.104,36.896,285.088z"/>
	</g>
</g>
<g>
	<g>
		<path d="M32.512,254.64l-15.968,1.096c0.376,5.472,0.968,11.016,1.768,16.496l15.824-2.296
			C33.4,264.856,32.856,259.704,32.512,254.64z"/>
	</g>
</g>
<g>
	<g>
		<path d="M16.664,222.608c-0.424,5.512-0.648,11.088-0.664,16.568l16,0.048c0.016-5.088,0.216-10.272,0.616-15.392L16.664,222.608z
			"/>
	</g>
</g>
<g>
	<g>
		<path d="M21.56,190.224c-1.2,5.232-2.216,10.584-3.024,15.904l15.832,2.392c0.744-4.928,1.68-9.896,2.784-14.744L21.56,190.224z"
			/>
	</g>
</g>
<g>
	<g>
		<path d="M76,367.96l-12.608,9.848c3.408,4.352,7,8.624,10.696,12.68l11.84-10.752C82.496,375.96,79.152,372,76,367.96z"/>
	</g>
</g>
<g>
	<g>
		<path d="M58.872,342.36l-13.904,7.904c2.744,4.832,5.672,9.576,8.704,14.112l13.296-8.896
			C64.144,351.272,61.432,346.856,58.872,342.36z"/>
	</g>
</g>
<g>
	<g>
		<path d="M403.48,368.632c-3.008,3.808-6.144,7.512-9.4,11.096l11.84,10.76c3.504-3.864,6.912-7.888,10.12-11.96L403.48,368.632z"
			/>
	</g>
</g>
<g>
	<g>
		<path d="M433.936,315.32c-1.84,4.76-3.896,9.52-6.104,14.144l14.44,6.88c2.376-4.976,4.584-10.096,6.584-15.232L433.936,315.32z"
			/>
	</g>
</g>
<g>
	<g>
		<path d="M447.448,255.392c-0.376,5.144-0.944,10.296-1.696,15.312l15.832,2.36c0.8-5.408,1.416-10.96,1.816-16.504
			L447.448,255.392z"/>
	</g>
</g>
<g>
	<g>
		<path d="M420.696,343.096c-2.544,4.448-5.28,8.848-8.144,13.088l13.264,8.944c3.072-4.56,6.024-9.296,8.768-14.08L420.696,343.096
			z"/>
	</g>
</g>
<g>
	<g>
		<path d="M463.392,223.408l-15.952,1.176c0.376,5.064,0.56,10.24,0.56,15.392h16C464,234.44,463.8,228.864,463.392,223.408z"/>
	</g>
</g>
<g>
	<g>
		<path d="M442.92,285.864c-1.128,5-2.456,10.008-3.944,14.896l15.312,4.664c1.6-5.264,3.032-10.664,4.24-16.04L442.92,285.864z"/>
	</g>
</g>
<g>
</g>
<g>
</g>
<g>
</g>
<g>
</g>
<g>
</g>
<g>
</g>
<g>
</g>
<g>
</g>
<g>
</g>
<g>
</g>
<g>
</g>
<g>
</g>
<g>
</g>
<g>
</g>
<g>
</g>
</svg>
